<svg xmlns="http://www.w3.org/2000/svg" version="1.1" xmlns:xlink="http://www.w3.org/1999/xlink" xmlns:svgjs="http://svgjs.dev/svgjs" width="1000" height="1000" viewBox="0 0 1000 1000"><rect width="1000" height="1000" fill="#ffffff"></rect><g transform="matrix(0.7,0,0,0.7,149.57575757575762,282.1265587044535)"><svg viewBox="0 0 396 247" data-background-color="#ffffff" preserveAspectRatio="xMidYMid meet" height="623" width="1000" xmlns="http://www.w3.org/2000/svg" xmlns:xlink="http://www.w3.org/1999/xlink"><g id="tight-bounds" transform="matrix(1,0,0,1,0.2400000000000091,-0.09999999999999432)"><svg viewBox="0 0 395.52 247.2" height="247.2" width="395.52"><g><svg></svg></g><g><svg viewBox="0 0 395.52 247.2" height="247.2" width="395.52"><g transform="matrix(1,0,0,1,75.54432,76.00193752737894)"><svg viewBox="0 0 244.43135999999998 95.19612494524209" height="95.19612494524209" width="244.43135999999998"><g><svg viewBox="0 0 244.43135999999998 95.19612494524209" height="95.19612494524209" width="244.43135999999998"><g><svg viewBox="0 0 244.43135999999998 95.19612494524209" height="95.19612494524209" width="244.43135999999998"><g><svg viewBox="0 0 244.43135999999998 95.19612494524209" height="95.19612494524209" width="244.43135999999998"><g><svg viewBox="0 0 244.43135999999998 95.19612494524209" height="95.19612494524209" width="244.43135999999998"><g><svg viewBox="0 0 244.43135999999998 51.34424098324022" height="51.34424098324022" width="244.43135999999998"><g transform="matrix(1,0,0,1,0,0)"><svg width="244.43135999999998" viewBox="1.8294156789779663 -36.79999923706055 178.98057556152344 37.599998474121094" height="51.34424098324022" data-palette-color="#1ebbd7"><path d="M13.75 0.8L13.75 0.8Q10.23 0.8 7.53-0.14 4.83-1.07 3.31-2.96 1.8-4.85 1.83-7.73L1.83-7.73 9.05-7.73Q9.1-6.43 10.06-5.93 11.03-5.43 12.68-5.43L12.68-5.43Q13.68-5.43 14.33-5.68 14.98-5.93 15.3-6.34 15.63-6.75 15.63-7.23L15.63-7.23Q15.63-7.85 15.18-8.22 14.73-8.6 13.78-8.97L13.78-8.97 7.8-11.3Q5.15-12.4 3.71-14.09 2.27-15.78 2.27-18.1L2.27-18.1Q2.27-21.38 5.3-23.4 8.33-25.43 13.58-25.43L13.58-25.43Q18.5-25.43 21.15-23.13 23.8-20.83 23.83-17.28L23.83-17.28 16.5-17.28Q16.5-18.07 15.83-18.66 15.15-19.25 13.58-19.25L13.58-19.25Q12.28-19.25 11.53-18.82 10.78-18.4 10.78-17.7L10.78-17.7Q10.78-16.75 12.35-16.2L12.35-16.2 19.15-13.48Q21.68-12.48 23.13-10.98 24.58-9.47 24.58-7.23L24.58-7.23Q24.58-5.18 23.16-3.34 21.75-1.5 19.3-0.35 16.85 0.8 13.75 0.8ZM35.47-27.8L35.47-27.8Q33.2-27.8 31.96-28.96 30.72-30.13 30.72-32.25L30.72-32.25Q30.72-34.33 31.96-35.56 33.2-36.8 35.47-36.8L35.47-36.8Q37.67-36.8 38.95-35.56 40.22-34.33 40.22-32.25L40.22-32.25Q40.22-30.13 38.95-28.96 37.67-27.8 35.47-27.8ZM39.47 0L31.47 0 31.47-24.78 39.47-24.78 39.47 0ZM57.77 0.8L57.77 0.8Q55.42 0.8 53.38-0.05 51.35-0.9 50.11-2.71 48.87-4.53 48.87-7.38L48.87-7.38 48.87-30.85 56.92-30.85 56.92-7.68Q56.92-5.43 59.15-5.43L59.15-5.43Q59.85-5.43 60.63-5.59 61.42-5.75 62.47-6.13L62.47-6.13 63.65-0.55Q62.12 0 60.73 0.4 59.35 0.8 57.77 0.8ZM62.52-19.45L45.95-19.45 45.95-24.63 62.52-24.63 62.52-19.45ZM74.14-27.8L74.14-27.8Q71.87-27.8 70.63-28.96 69.39-30.13 69.39-32.25L69.39-32.25Q69.39-34.33 70.63-35.56 71.87-36.8 74.14-36.8L74.14-36.8Q76.34-36.8 77.62-35.56 78.89-34.33 78.89-32.25L78.89-32.25Q78.89-30.13 77.62-28.96 76.34-27.8 74.14-27.8ZM78.14 0L70.14 0 70.14-24.78 78.14-24.78 78.14 0ZM95.34 0L87.34 0 87.34-34.5 95.34-34.5 95.34 0ZM108.61-27.8L108.61-27.8Q106.34-27.8 105.1-28.96 103.86-30.13 103.86-32.25L103.86-32.25Q103.86-34.33 105.1-35.56 106.34-36.8 108.61-36.8L108.61-36.8Q110.81-36.8 112.09-35.56 113.36-34.33 113.36-32.25L113.36-32.25Q113.36-30.13 112.09-28.96 110.81-27.8 108.61-27.8ZM112.61 0L104.61 0 104.61-24.78 112.61-24.78 112.61 0ZM146.16 0L138.11 0 138.11-14.35Q138.11-16.3 137.16-17.24 136.21-18.18 134.86-18.18L134.86-18.18Q133.49-18.18 132.34-17.4 131.19-16.63 130.5-14.91 129.81-13.2 129.81-10.38L129.81-10.38 127.39-10.38Q127.39-15.68 128.65-19 129.91-22.33 132.1-23.88 134.28-25.43 137.06-25.43L137.06-25.43Q140.24-25.43 142.25-24 144.26-22.58 145.21-20.08 146.16-17.57 146.16-14.35L146.16-14.35 146.16 0ZM129.81 0L121.81 0 121.81-24.63 128.86-24.63 129.81-20.55 129.81 0ZM161.98 0L153.98 0 153.98-34.5 161.98-34.5 161.98 0ZM160.98-8.33L160.98-16.48 169.48-24.63 180.16-24.63 160.98-8.33ZM180.81 0L171.11 0 160.78-15.83 168.11-17.85 180.81 0Z" opacity="1" transform="matrix(1,0,0,1,0,0)" fill="#1ebbd7" class="undefined-text-0" data-fill-palette-color="primary" id="text-0"></path></svg></g></svg></g><g transform="matrix(1,0,0,1,0,63.46538401759964)"><svg viewBox="0 0 244.43135999999998 31.730740927642454" height="31.730740927642454" width="244.43135999999998"><g transform="matrix(1,0,0,1,0,0)"><svg width="244.43135999999998" viewBox="2.5 -35.45000076293945 276.92999267578125 35.95000076293945" height="31.730740927642454" data-palette-color="#4b91f1"><path d="M12.3-21.1L18.75-21.1Q19.7-21.1 19.7-17.6L19.7-17.6Q19.7-16.55 19.48-15.13 19.25-13.7 18.65-13.7L18.65-13.7 12.3-13.7 12.3-8.7 21.5-8.7Q22.35-8.7 22.65-6.5L22.65-6.5Q22.8-5.55 22.8-4.48 22.8-3.4 22.5-1.7 22.2 0 21.5 0L21.5 0 4.4 0Q2.5 0 2.5-1.55L2.5-1.55 2.5-33.7Q2.5-35 3.65-35L3.65-35 21.55-35Q22.6-35 22.6-30.58 22.6-26.15 21.55-26.15L21.55-26.15 12.3-26.15 12.3-21.1ZM75.28-9.5L75.28-9.5 55.53-9.5Q54.63-9.5 54.23-10.95L54.23-10.95Q54.03-11.7 54.03-12.4 54.03-13.1 54.23-13.85L54.23-13.85Q54.63-15.3 55.53-15.3L55.53-15.3 75.28-15.3Q76.18-15.3 76.58-13.85L76.58-13.85Q76.78-13.1 76.78-12.4 76.78-11.7 76.58-10.95L76.58-10.95Q76.18-9.5 75.28-9.5ZM123.71-25.9L123.71-0.8Q123.71 0.2 118.76 0.2 113.81 0.2 113.81-0.8L113.81-0.8 113.81-25.9 107.81-25.9Q106.96-25.9 106.61-28.2L106.61-28.2Q106.46-29.3 106.46-30.45 106.46-31.6 106.61-32.7L106.61-32.7Q106.96-35 107.81-35L107.81-35 129.56-35Q130.41-35 130.76-32.7L130.76-32.7Q130.91-31.6 130.91-30.45 130.91-29.3 130.76-28.2L130.76-28.2Q130.41-25.9 129.56-25.9L129.56-25.9 123.71-25.9ZM151.77-24.85L151.77-0.3Q151.77 0.1 147.2 0.1 142.62 0.1 142.62-0.25L142.62-0.25 142.62-24.8Q142.62-25.15 147.2-25.15 151.77-25.15 151.77-24.85L151.77-24.85ZM151.77-35.15L151.77-27.8Q151.77-27.45 147.2-27.45 142.62-27.45 142.62-27.75L142.62-27.75 142.62-34.95Q142.62-35.45 147.2-35.45 151.77-35.45 151.77-35.15L151.77-35.15ZM173.59-12.4L173.59-12.4Q173.59-7.5 177.29-7.5L177.29-7.5Q179.69-7.5 181.29-8.45L181.29-8.45Q182.04-8.45 182.51-5.88 182.99-3.3 182.99-2.38 182.99-1.45 182.74-1.15L182.74-1.15Q180.09 0.5 175.49 0.5 170.89 0.5 167.66-2.93 164.44-6.35 164.44-12.28 164.44-18.2 167.61-21.85 170.79-25.5 176.06-25.5 181.34-25.5 183.39-22.95L183.39-22.95Q183.84-22.4 183.84-21.33 183.84-20.25 183.44-18.7L183.44-18.7Q182.54-15.5 181.09-15L181.09-15Q180.89-14.95 180.51-14.95 180.14-14.95 179.59-15.55L179.59-15.55Q177.64-17.5 176.46-17.5 175.29-17.5 174.44-16.3 173.59-15.1 173.59-12.4ZM195.7-0.3L195.7-34.6Q195.7-35.4 200.25-35.4L200.25-35.4Q204.5-35.25 204.5-34.75L204.5-34.75 204.5-15.55 209.45-24.7Q209.8-25.45 213.7-25.45 217.6-25.45 218.7-24.95L218.7-24.95 212.2-14.35 219.7-0.3Q219.8-0.1 217.83 0.03 215.85 0.15 214.55 0.15L214.55 0.15Q209.75 0.15 209.4-0.3L209.4-0.3 204.45-11.4 204.45-0.35Q204.45 0.3 200.08 0.3 195.7 0.3 195.7-0.3L195.7-0.3ZM249.02-1.35L249.02-1.35Q245.87 0.5 240.92 0.5 235.97 0.5 232.57-2.88 229.17-6.25 229.17-12.23 229.17-18.2 232.44-21.85 235.72-25.5 240.72-25.5 245.72-25.5 248.44-22.95 251.17-20.4 251.17-16.75L251.17-16.75Q251.17-8.65 241.87-8.65L241.87-8.65 238.42-8.65Q238.42-7.15 239.24-6.58 240.07-6 241.67-6L241.67-6Q245.17-6 248.32-7.6L248.32-7.6Q248.37-7.65 248.77-6.9L248.77-6.9Q249.97-4.75 249.97-3.28 249.97-1.8 249.02-1.35ZM242.77-15.8L242.77-15.8Q242.77-17.9 240.72-17.9L240.72-17.9Q239.77-17.9 239.09-17.32 238.42-16.75 238.42-15.65L238.42-15.65 238.42-14.1 241.12-14.1Q242.77-14.1 242.77-15.8ZM275.03-18L275.03-0.3Q275.03 0.3 270.83 0.3L270.83 0.3Q265.83 0.1 265.83-0.35L265.83-0.35 265.83-18.05 263.28-18.05Q262.28-18.05 262.28-21.5L262.28-21.5Q262.28-22.4 262.46-23.7 262.63-25 263.18-25L263.18-25 265.83-25 265.83-29.4Q265.83-30.4 270.06-30.4 274.28-30.4 274.28-29.6L274.28-29.6 274.28-26.4 274.33-25 278.58-25Q279.43-25 279.43-21.5 279.43-18 278.58-18L278.58-18 275.03-18Z" opacity="1" transform="matrix(1,0,0,1,0,0)" fill="#4b91f1" class="undefined-text-1" data-fill-palette-color="secondary" id="text-1"></path></svg></g></svg></g></svg></g></svg></g></svg></g></svg></g></svg></g><g><path d="M0 123.6c0-68.262 55.338-123.6 123.6-123.6 49.035 0 91.4 28.554 111.377 69.941l-2.578 0c-19.799-40.069-61.081-67.626-108.799-67.626-66.984 0-121.285 54.301-121.285 121.285 0 66.984 54.301 121.285 121.285 121.285 47.718 0 89-27.558 108.799-67.626l2.578 0c-19.976 41.387-62.342 69.941-111.377 69.941-68.262 0-123.6-55.338-123.6-123.6z" fill="#1ebbd7" stroke="transparent" data-fill-palette-color="tertiary"></path></g></svg></g><defs></defs></svg><rect width="395.52" height="247.2" fill="none" stroke="none" visibility="hidden"></rect></g></svg></g></svg>