<?xml version="1.0" encoding="UTF-8" standalone="no"?>
<!-- Generator: Adobe Illustrator 17.0.0, SVG Export Plug-In . SVG Version: 6.00 Build 0)  -->

<svg
   xmlns:dc="http://purl.org/dc/elements/1.1/"
   xmlns:cc="http://creativecommons.org/ns#"
   xmlns:rdf="http://www.w3.org/1999/02/22-rdf-syntax-ns#"
   xmlns:svg="http://www.w3.org/2000/svg"
   xmlns="http://www.w3.org/2000/svg"
   xmlns:sodipodi="http://sodipodi.sourceforge.net/DTD/sodipodi-0.dtd"
   xmlns:inkscape="http://www.inkscape.org/namespaces/inkscape"
   version="1.1"
   id="Layer_1"
   x="0px"
   y="0px"
   width="300"
   height="600"
   viewBox="0 0 300 600"
   enable-background="new 0 0 600 600"
   xml:space="preserve"
   inkscape:version="0.91 r13725"
   sodipodi:docname="Attention_aux_pickpockets.svg"><metadata
     id="metadata21"><rdf:RDF><cc:Work
         rdf:about=""><dc:format>image/svg+xml</dc:format><dc:type
           rdf:resource="http://purl.org/dc/dcmitype/StillImage" /><dc:title /></cc:Work></rdf:RDF></metadata><defs
     id="defs19" /><sodipodi:namedview
     pagecolor="#ffffff"
     bordercolor="#666666"
     borderopacity="1"
     objecttolerance="10"
     gridtolerance="10"
     guidetolerance="10"
     inkscape:pageopacity="0"
     inkscape:pageshadow="2"
     inkscape:window-width="1600"
     inkscape:window-height="847"
     id="namedview17"
     showgrid="false"
     inkscape:zoom="1.1125147"
     inkscape:cx="348.99248"
     inkscape:cy="335.19647"
     inkscape:window-x="-8"
     inkscape:window-y="-8"
     inkscape:window-maximized="1"
     inkscape:current-layer="Layer_1" /><g
     id="g3"
     transform="translate(-33.438669,5.9197301)"><path
       d="m 287.915,154.605 0,161.76 c 0,11.05 -8.96,20 -20,20 -11.05,0 -20,-8.95 -20,-20 l 0,-128.58 -5,0 0,354.23 c 0,13.53 -10.97,24.5 -24.5,24.5 -13.53,0 -24.5,-10.97 -24.5,-24.5 l 0,-203.92 -12,0 0,203.92 c 0,13.53 -10.97,24.5 -24.5,24.5 -13.53,0 -24.5,-10.97 -24.5,-24.5 l 0,-354.23 -5,0 0,128.58 c 0,11.05 -8.96,20 -20,20 -11.05,0 -20,-8.95 -20,-20 l 0,-161.76 c 0,-0.19 0,-0.37 0.01,-0.56 0.37,-16.24 16.93,-29.31 37.32,-29.31 l 125.33,0 c 20.62,0 37.34,13.37 37.34,29.87 z"
       id="path7"
       inkscape:connector-curvature="0" /></g><path
     d="m 242.03632,260.40472 0,54.86 c 0,2.84 -1.86,5.14 -4.15,5.14 l -57.69,0 c -2.3,0 -4.16,-2.3 -4.16,-5.14 l 0,-54.86 -6.43,-12.14 -62.29999,-117.61 -1.81,0 0.62,-2.25 9.64,0 53.84999,101.65 10.98,20.73 5.09,9.62 56.36,0 z"
     id="path15"
     inkscape:connector-curvature="0"
     style="fill:#b3b3b3" /><path
     inkscape:connector-curvature="0"
     style="fill:#000000;fill-opacity:1;fill-rule:nonzero;stroke:none"
     id="path4474"
     d="m 94.067931,27.893462 101.965829,0 0,25.856776 -83.28599,0 z"
     sodipodi:nodetypes="ccccc" /><path
     inkscape:connector-curvature="0"
     style="fill:#000000;fill-opacity:1;fill-rule:nonzero;stroke:none"
     id="path4476"
     d="m 196.03376,60.036062 -83.28599,0 -16.714119,21.038594 19.670779,0 c 0,23.419764 18.36107,39.813844 39.7819,39.813844 20.65715,0 40.54731,-16.39408 40.54731,-40.59476 z"
     sodipodi:nodetypes="ccccssc" /><g
     style="font-style:normal;font-weight:normal;font-size:18.75px;line-height:125%;font-family:sans-serif;letter-spacing:0px;word-spacing:0px;fill:#000000;fill-opacity:1;stroke:none;stroke-width:1px;stroke-linecap:butt;stroke-linejoin:miter;stroke-opacity:1"
     id="text4161"
     transform="translate(-33.438669,5.9197301)"><path
       d="m 212.57861,274.07623 8.58399,0 q 2.54883,0 3.79394,0.21973 1.25977,0.20508 2.24121,0.87891 0.9961,0.67382 1.65528,1.80175 0.65918,1.11328 0.65918,2.50489 0,1.50879 -0.82032,2.76855 -0.80566,1.25977 -2.19726,1.88965 1.96289,0.57129 3.01758,1.94824 1.05468,1.37695 1.05468,3.23731 0,1.46484 -0.68847,2.85644 -0.67383,1.37695 -1.86035,2.21192 -1.17188,0.82031 -2.90039,1.01074 -1.08399,0.11719 -5.2295,0.14648 l -7.30957,0 0,-21.47461 z m 4.33594,3.57422 0,4.96582 2.8418,0 q 2.53418,0 3.14941,-0.0732 1.11328,-0.13184 1.74317,-0.76172 0.64453,-0.64453 0.64453,-1.68457 0,-0.99609 -0.55664,-1.61133 -0.542,-0.62988 -1.62598,-0.76172 -0.64453,-0.0732 -3.70605,-0.0732 l -2.49024,0 z m 0,8.54004 0,5.74219 4.01367,0 q 2.34375,0 2.97364,-0.13184 0.96679,-0.17578 1.56738,-0.84961 0.61523,-0.68847 0.61523,-1.83105 0,-0.9668 -0.46875,-1.64063 -0.46875,-0.67382 -1.3623,-0.98144 -0.87891,-0.30762 -3.83789,-0.30762 l -3.50098,0 z"
       style="font-style:normal;font-variant:normal;font-weight:bold;font-stretch:normal;font-size:30px;line-height:125%;font-family:Arial;-inkscape-font-specification:'Arial, Bold';text-align:start;writing-mode:lr-tb;text-anchor:start"
       id="path4166"
       inkscape:connector-curvature="0" /><path
       d="m 234.21436,274.07623 4.33593,0 0,11.63086 q 0,2.76856 0.16114,3.58887 0.27832,1.31836 1.31836,2.12402 1.05468,0.79102 2.87109,0.79102 1.8457,0 2.7832,-0.74707 0.9375,-0.76172 1.12793,-1.86035 0.19043,-1.09864 0.19043,-3.64746 l 0,-11.87989 4.33594,0 0,11.2793 q 0,3.86719 -0.35156,5.46387 -0.35157,1.59668 -1.30371,2.69531 -0.9375,1.09863 -2.51954,1.75781 -1.58203,0.64453 -4.13086,0.64453 -3.07617,0 -4.67285,-0.70312 -1.58203,-0.71778 -2.50488,-1.8457 -0.92285,-1.14258 -1.21582,-2.3877 -0.4248,-1.8457 -0.4248,-5.44922 l 0,-11.45508 z"
       style="font-style:normal;font-variant:normal;font-weight:bold;font-stretch:normal;font-size:30px;line-height:125%;font-family:Arial;-inkscape-font-specification:'Arial, Bold';text-align:start;writing-mode:lr-tb;text-anchor:start"
       id="path4168"
       inkscape:connector-curvature="0" /><path
       d="m 254.82471,288.56354 4.21875,-0.41016 q 0.38086,2.12402 1.53808,3.12012 1.17188,0.99609 3.14942,0.99609 2.09472,0 3.14941,-0.8789 1.06934,-0.89356 1.06934,-2.08008 0,-0.76172 -0.4541,-1.28906 -0.43946,-0.542 -1.55274,-0.9375 -0.76172,-0.26368 -3.47168,-0.9375 -3.48633,-0.86426 -4.89258,-2.12403 -1.97754,-1.77246 -1.97754,-4.32129 0,-1.64062 0.92286,-3.06152 0.9375,-1.43555 2.68066,-2.18262 1.75781,-0.74707 4.2334,-0.74707 4.04297,0 6.0791,1.77246 2.05078,1.77246 2.15332,4.73145 l -4.33594,0.19043 q -0.27832,-1.65528 -1.20117,-2.37305 -0.9082,-0.73242 -2.73926,-0.73242 -1.88965,0 -2.95898,0.77637 -0.68848,0.49804 -0.68848,1.333 0,0.76172 0.64453,1.30372 0.82032,0.68847 3.98438,1.43554 3.16406,0.74707 4.67285,1.55274 1.52344,0.79101 2.37305,2.18261 0.86425,1.37696 0.86425,3.41309 0,1.8457 -1.02539,3.45703 -1.02539,1.61133 -2.90039,2.40234 -1.875,0.77637 -4.67285,0.77637 -4.07226,0 -6.25488,-1.875 -2.18262,-1.88965 -2.60742,-5.49316 z"
       style="font-style:normal;font-variant:normal;font-weight:bold;font-stretch:normal;font-size:30px;line-height:125%;font-family:Arial;-inkscape-font-specification:'Arial, Bold';text-align:start;writing-mode:lr-tb;text-anchor:start"
       id="path4170"
       inkscape:connector-curvature="0" /></g><path
     style="fill:#ffffff;fill-rule:evenodd;stroke:#b3b3b3;stroke-width:3;stroke-linecap:butt;stroke-linejoin:miter;stroke-miterlimit:4;stroke-dasharray:none;stroke-opacity:1"
     d="M 50.423729,203.17797 C 53.370007,200.23169 58.504582,200 62.924,200 c 4.419418,0 9.553451,0.23169 12.499729,3.17797 4.714046,4.71405 0,20 0,20 0,0 -7.163863,9.99994 -12.499729,10 -5.336007,6e-5 -12.500271,-10 -12.500271,-10 0,0 -4.714046,-15.28595 0,-20 z"
     id="path4141"
     inkscape:connector-curvature="0"
     sodipodi:nodetypes="ssscacs" /><circle
     style="fill:#ffff00;fill-opacity:0;stroke:#b3b3b3;stroke-width:3.00000024;stroke-miterlimit:4;stroke-dasharray:none;stroke-dashoffset:0;stroke-opacity:1"
     id="path4143"
     cx="63.080002"
     cy="214.89195"
     r="5.5" /></svg>